<svg version="1.1" xmlns="http://www.w3.org/2000/svg" xmlns:xlink="http://www.w3.org/1999/xlink" width="24px" height="24px" viewBox="0,0,256,256"><defs><clipPath id="clip-1"><path d="M0,256v-256h256v256h-47.06441c20.37806,-9.42967 34.24547,-31.35741 34.24547,-55c0,-32.08319 -26.09474,-58.17793 -58.17793,-58.17793c-32.08319,0 -58.17793,26.09474 -58.17793,58.17793c0,6.91929 1.3187,13.78429 3.86301,20.31573c-4.04143,5.25928 -5.02657,12.29494 -2.43572,18.55488c2.9089,7.02014 9.69632,11.55026 17.29048,11.55026h20.71134c3.94834,0 7.65622,-1.01617 10.89091,-2.8003c1.99423,3.04979 4.66778,5.56817 7.7696,7.37943z" id="overlayBgMask" fill="none"></path></clipPath></defs><g clip-path="url(#clip-1)" fill="none" fill-rule="nonzero" stroke="none" stroke-width="1" stroke-linecap="butt" stroke-linejoin="miter" stroke-miterlimit="10" stroke-dasharray="" stroke-dashoffset="0" font-family="none" font-weight="none" font-size="none" text-anchor="none" style="mix-blend-mode: normal"><g transform="scale(10.66667,10.66667)" fill="#a7a7a9"><path d="M20,4h-16c-1.105,0 -2,0.895 -2,2v12c0,1.105 0.895,2 2,2h16c1.105,0 2,-0.895 2,-2v-12c0,-1.105 -0.895,-2 -2,-2zM7,16h-2c-0.552,0 -1,-0.448 -1,-1v0c0,-0.552 0.448,-1 1,-1h2c0.552,0 1,0.448 1,1v0c0,0.552 -0.448,1 -1,1zM7,10h-2c-0.552,0 -1,-0.448 -1,-1v0c0,-0.552 0.448,-1 1,-1h2c0.552,0 1,0.448 1,1v0c0,0.552 -0.448,1 -1,1zM19,17h-8c-0.552,0 -1,-0.448 -1,-1v-2c0,-0.552 0.448,-1 1,-1h8c0.552,0 1,0.448 1,1v2c0,0.552 -0.448,1 -1,1zM19,11h-8c-0.552,0 -1,-0.448 -1,-1v-2c0,-0.552 0.448,-1 1,-1h8c0.552,0 1,0.448 1,1v2c0,0.552 -0.448,1 -1,1z"></path></g></g><g fill="#faa61a" fill-rule="nonzero" stroke="none" stroke-width="1" stroke-linecap="butt" stroke-linejoin="miter" stroke-miterlimit="10" stroke-dasharray="" stroke-dashoffset="0" font-family="none" font-weight="none" font-size="none" text-anchor="none" style="mix-blend-mode: normal"><g transform="translate(142.33904,158.33619) scale(7.75706,7.75706)" id="overlay"><path d="M11,5.5c0,2.398 -1.541,4.687 -3.665,5.442c-0.11,0.039 -0.224,0.058 -0.335,0.058c-0.411,0 -0.797,-0.256 -0.942,-0.666c-0.185,-0.52 0.087,-1.091 0.607,-1.276c1.331,-0.474 2.335,-2.003 2.335,-3.558c0,-1.93 -1.57,-3.5 -3.5,-3.5c-1.93,0 -3.5,1.57 -3.5,3.5c0,0.547 0.144,1.065 0.38,1.536l0.915,-0.915c0.26,-0.259 0.705,-0.075 0.705,0.293v2.67c0,0.506 -0.41,0.916 -0.917,0.916h-2.67c-0.368,0 -0.552,-0.445 -0.292,-0.705l0.799,-0.799l0.011,-0.011c-0.58,-0.872 -0.931,-1.894 -0.931,-2.985c0,-3.033 2.468,-5.5 5.5,-5.5c3.032,0 5.5,2.467 5.5,5.5z"></path></g></g></svg>