<svg version="1.1" xmlns="http://www.w3.org/2000/svg" xmlns:xlink="http://www.w3.org/1999/xlink" width="24px" height="24px" viewBox="0,0,256,256"><defs><clipPath id="clip-1"><path d="M0,256v-256h256v256h-47.69528c21.39195,-9.09785 36.42861,-30.32498 36.42861,-55c0,-32.93867 -26.79467,-59.73333 -59.73333,-59.73333c-32.93867,0 -59.73333,26.79467 -59.73333,59.73333c0,24.67502 15.03666,45.90215 36.42861,55z" id="overlayBgMask" fill="none"></path></clipPath></defs><g clip-path="url(#clip-1)" fill="none" fill-rule="nonzero" stroke="none" stroke-width="1" stroke-linecap="butt" stroke-linejoin="miter" stroke-miterlimit="10" stroke-dasharray="" stroke-dashoffset="0" font-family="none" font-weight="none" font-size="none" text-anchor="none" style="mix-blend-mode: normal"><g transform="scale(10.66667,10.66667)" fill="#a7a7a9"><path d="M20,4h-16c-1.105,0 -2,0.895 -2,2v12c0,1.105 0.895,2 2,2h16c1.105,0 2,-0.895 2,-2v-12c0,-1.105 -0.895,-2 -2,-2zM7,16h-2c-0.552,0 -1,-0.448 -1,-1v0c0,-0.552 0.448,-1 1,-1h2c0.552,0 1,0.448 1,1v0c0,0.552 -0.448,1 -1,1zM7,10h-2c-0.552,0 -1,-0.448 -1,-1v0c0,-0.552 0.448,-1 1,-1h2c0.552,0 1,0.448 1,1v0c0,0.552 -0.448,1 -1,1zM19,17h-8c-0.552,0 -1,-0.448 -1,-1v-2c0,-0.552 0.448,-1 1,-1h8c0.552,0 1,0.448 1,1v2c0,0.552 -0.448,1 -1,1zM19,11h-8c-0.552,0 -1,-0.448 -1,-1v-2c0,-0.552 0.448,-1 1,-1h8c0.552,0 1,0.448 1,1v2c0,0.552 -0.448,1 -1,1z"></path></g></g><g fill="#118842" fill-rule="nonzero" stroke="none" stroke-width="1" stroke-linecap="butt" stroke-linejoin="miter" stroke-miterlimit="10" stroke-dasharray="" stroke-dashoffset="0" font-family="none" font-weight="none" font-size="none" text-anchor="none" style="mix-blend-mode: normal"><g transform="translate(142.33333,158.33333) scale(8.53333,8.53333)" id="overlay"><path d="M5,0c-2.761,0 -5,2.239 -5,5c0,2.761 2.239,5 5,5c2.761,0 5,-2.239 5,-5c0,-2.761 -2.239,-5 -5,-5zM7,6h-1v1c0,0.552 -0.448,1 -1,1c-0.552,0 -1,-0.448 -1,-1v-1h-1c-0.552,0 -1,-0.448 -1,-1c0,-0.552 0.448,-1 1,-1h1v-1c0,-0.552 0.448,-1 1,-1c0.552,0 1,0.448 1,1v1h1c0.552,0 1,0.448 1,1c0,0.552 -0.448,1 -1,1z"></path></g></g></svg>