<svg version="1.1" xmlns="http://www.w3.org/2000/svg" xmlns:xlink="http://www.w3.org/1999/xlink" width="24px" height="24px" viewBox="0,0,256,256"><defs><clipPath id="clip-1"><path d="M0,256v-256h256v256h-47.69528c21.39195,-9.09785 36.42861,-30.32498 36.42861,-55c0,-32.93867 -26.79467,-59.73333 -59.73333,-59.73333c-32.93867,0 -59.73333,26.79467 -59.73333,59.73333c0,24.67502 15.03666,45.90215 36.42861,55z" id="overlayBgMask" fill="none"></path></clipPath></defs><g clip-path="url(#clip-1)" fill="none" fill-rule="nonzero" stroke="none" stroke-width="1" stroke-linecap="butt" stroke-linejoin="miter" stroke-miterlimit="10" stroke-dasharray="" stroke-dashoffset="0" font-family="none" font-weight="none" font-size="none" text-anchor="none" style="mix-blend-mode: normal"><g transform="scale(10.66667,10.66667)" fill="#a7a7a9"><path d="M4,4c-0.93,0 -1.70769,0.64291 -1.92969,1.50391l9.92969,6.22266l9.93555,-6.20508c-0.216,-0.871 -0.99855,-1.52148 -1.93555,-1.52148zM2,7.73438v10.26563c0,1.103 0.897,2 2,2h16c1.103,0 2,-0.897 2,-2v-10.24414l-10,6.24414z"></path></g></g><g fill="#ec4144" fill-rule="nonzero" stroke="none" stroke-width="1" stroke-linecap="butt" stroke-linejoin="miter" stroke-miterlimit="10" stroke-dasharray="" stroke-dashoffset="0" font-family="none" font-weight="none" font-size="none" text-anchor="none" style="mix-blend-mode: normal"><g transform="translate(142.33333,158.33333) scale(8.53333,8.53333)" id="overlay"><path d="M5,0c-2.761,0 -5,2.239 -5,5c0,2.761 2.239,5 5,5c2.761,0 5,-2.239 5,-5c0,-2.761 -2.239,-5 -5,-5zM8,6h-6v-2h6z"></path></g></g></svg>