<svg version="1.1" xmlns="http://www.w3.org/2000/svg" xmlns:xlink="http://www.w3.org/1999/xlink" width="24px" height="24px" viewBox="0,0,256,256"><defs><clipPath id="clip-1"><path d="M0,256v-256h256v256l-51.61994,0c22.60903,-8.12486 38.80175,-30.04048 38.80175,-55c0,-32.08533 -26.09648,-58.18182 -58.18182,-58.18182c-32.08533,0 -58.18182,26.09648 -58.18182,58.18182c0,8.23855 1.69115,16.19006 4.95709,23.52873l-0.41115,0.41115c-4.43733,4.43733 -5.76388,11.10885 -3.36679,16.91152c2.39709,5.80267 8.06012,9.57285 14.336,9.57285h31.0303c0.68267,0 1.34982,-0.04655 2.00921,-0.13188c0.79903,1.41188 1.81527,2.70739 3.04873,3.82448c0.3388,0.31125 0.68987,0.60577 1.05197,0.88315z" id="overlayBgMask" fill="none"></path></clipPath></defs><g clip-path="url(#clip-1)" fill="none" fill-rule="nonzero" stroke="none" stroke-width="1" stroke-linecap="butt" stroke-linejoin="miter" stroke-miterlimit="10" stroke-dasharray="" stroke-dashoffset="0" font-family="none" font-weight="none" font-size="none" text-anchor="none" style="mix-blend-mode: normal"><g transform="scale(10.66667,10.66667)" fill="#a7a7a9"><path d="M4,4c-0.93,0 -1.70769,0.64291 -1.92969,1.50391l9.92969,6.22266l9.93555,-6.20508c-0.216,-0.871 -0.99855,-1.52148 -1.93555,-1.52148zM2,7.73438v10.26563c0,1.103 0.897,2 2,2h16c1.103,0 2,-0.897 2,-2v-10.24414l-10,6.24414z"></path></g></g><g fill="#faa61a" fill-rule="nonzero" stroke="none" stroke-width="1" stroke-linecap="butt" stroke-linejoin="miter" stroke-miterlimit="10" stroke-dasharray="" stroke-dashoffset="0" font-family="none" font-weight="none" font-size="none" text-anchor="none" style="mix-blend-mode: normal"><g transform="translate(142.33333,158.33333) scale(7.75758,7.75758)" id="overlay"><path d="M11,5.5c0,2.864 -2.201,5.246 -5,5.5v-2.025c1.692,-0.245 3,-1.717 3,-3.475c0,-1.93 -1.57,-3.5 -3.5,-3.5c-1.93,0 -3.5,1.57 -3.5,3.5c0,0.698 0.221,1.348 0.591,1.909l1.409,-1.409v4h-4l1.146,-1.146c-0.735,-0.949 -1.146,-2.113 -1.146,-3.354c0,-3.033 2.468,-5.5 5.5,-5.5c3.032,0 5.5,2.467 5.5,5.5z"></path></g></g></svg>