<svg version="1.1" xmlns="http://www.w3.org/2000/svg" xmlns:xlink="http://www.w3.org/1999/xlink" width="24px" height="24px" viewBox="0,0,256,256"><defs><clipPath id="clip-1"><path d="M0,256v-256h256v256h-47.69528c21.39195,-9.09785 36.42861,-30.32498 36.42861,-55c0,-32.93867 -26.79467,-59.73333 -59.73333,-59.73333c-32.93867,0 -59.73333,26.79467 -59.73333,59.73333c0,24.67502 15.03666,45.90215 36.42861,55z" id="overlayBgMask" fill="none"></path></clipPath></defs><g clip-path="url(#clip-1)" fill="none" fill-rule="nonzero" stroke="none" stroke-width="1" stroke-linecap="butt" stroke-linejoin="miter" stroke-miterlimit="10" stroke-dasharray="" stroke-dashoffset="0" font-family="none" font-weight="none" font-size="none" text-anchor="none" style="mix-blend-mode: normal"><g transform="scale(10.66667,10.66667)" fill="#a7a7a9"><path d="M8,5c-1.65685,0 -3,1.34315 -3,3c0,1.65685 1.34315,3 3,3c1.65685,0 3,-1.34315 3,-3c0,-1.65685 -1.34315,-3 -3,-3zM16,5c-1.65685,0 -3,1.34315 -3,3c0,1.65685 1.34315,3 3,3c1.65685,0 3,-1.34315 3,-3c0,-1.65685 -1.34315,-3 -3,-3zM3.76367,9.00195c-0.43814,0.01683 -1.39147,0.12975 -2.01172,0.75c-0.827,0.827 -0.75,2.24609 -0.75,2.24609c0,0 1.41909,0.077 2.24609,-0.75c0.827,-0.827 0.75,-2.24609 0.75,-2.24609c0,0 -0.08833,-0.00561 -0.23437,0zM8,13c-3,0 -7,1.464 -7,3.5v2.5h14v-2.5c0,-2.036 -4,-3.5 -7,-3.5zM16,13c-0.317,0 -0.64652,0.01978 -0.97852,0.05078c1.182,0.865 1.97852,2.00822 1.97852,3.44922v2.5h6v-2.5c0,-2.036 -4,-3.5 -7,-3.5z"></path></g></g><g fill="#118842" fill-rule="nonzero" stroke="none" stroke-width="1" stroke-linecap="butt" stroke-linejoin="miter" stroke-miterlimit="10" stroke-dasharray="" stroke-dashoffset="0" font-family="none" font-weight="none" font-size="none" text-anchor="none" style="mix-blend-mode: normal"><g transform="translate(142.33333,158.33333) scale(8.53333,8.53333)" id="overlay"><path d="M5,0c-2.761,0 -5,2.239 -5,5c0,2.761 2.239,5 5,5c2.761,0 5,-2.239 5,-5c0,-2.761 -2.239,-5 -5,-5zM8,6h-2v2h-2v-2h-2v-2h2v-2h2v2h2z"></path></g></g></svg>