<svg version="1.1" xmlns="http://www.w3.org/2000/svg" xmlns:xlink="http://www.w3.org/1999/xlink" width="24px" height="24px" viewBox="0,0,256,256"><defs><clipPath id="clip-1"><path d="M0,256v-256h256v256h-47.69528c21.39195,-9.09785 36.42861,-30.32498 36.42861,-55c0,-32.93867 -26.79467,-59.73333 -59.73333,-59.73333c-32.93867,0 -59.73333,26.79467 -59.73333,59.73333c0,24.67502 15.03666,45.90215 36.42861,55z" id="overlayBgMask" fill="none"></path></clipPath></defs><g clip-path="url(#clip-1)" fill="none" fill-rule="nonzero" stroke="none" stroke-width="1" stroke-linecap="butt" stroke-linejoin="miter" stroke-miterlimit="10" stroke-dasharray="" stroke-dashoffset="0" font-family="none" font-weight="none" font-size="none" text-anchor="none" style="mix-blend-mode: normal"><g transform="scale(10.66667,10.66667)" fill="#a7a7a9"><path d="M6,7c-2.761,0 -5,2.239 -5,5c0,2.761 2.239,5 5,5h4v-2h-4c-1.657,0 -3,-1.343 -3,-3c0,-1.657 1.343,-3 3,-3h4v-2zM14,7v2h4c1.657,0 3,1.343 3,3c0,1.657 -1.343,3 -3,3h-4v2h4c2.761,0 5,-2.239 5,-5c0,-2.761 -2.239,-5 -5,-5zM7,11v2h10v-2z"></path></g></g><g fill="#118842" fill-rule="nonzero" stroke="none" stroke-width="1" stroke-linecap="butt" stroke-linejoin="miter" stroke-miterlimit="10" stroke-dasharray="" stroke-dashoffset="0" font-family="none" font-weight="none" font-size="none" text-anchor="none" style="mix-blend-mode: normal"><g transform="translate(142.33333,158.33333) scale(8.53333,8.53333)" id="overlay"><path d="M5,0c-2.761,0 -5,2.239 -5,5c0,2.761 2.239,5 5,5c2.761,0 5,-2.239 5,-5c0,-2.761 -2.239,-5 -5,-5zM8,6h-2v2h-2v-2h-2v-2h2v-2h2v2h2z"></path></g></g></svg>